<?xml version="1.0" encoding="UTF-8"?>
<svg id="Layer_1" xmlns="http://www.w3.org/2000/svg" version="1.1" viewBox="0 0 178.6 45.4">
  <!-- Generator: Adobe Illustrator 30.5.1, SVG Export Plug-In . SVG Version: 2.1.4 Build 3)  -->
  <defs>
    <style>
      .st0 {
        fill: #31c8a0;
      }
      path:not(.st0),
      polygon:not(.st0),
      rect:not(.st0) {
        fill: #ffffff;
      }
    </style>
  </defs>
  <path d="M31.8,8.7c1.5,1.5,2.2,3.6,2.2,6.3v11.8h-6.2v-11c0-1.3-.3-2.3-1-3-.7-.7-1.6-1.1-2.8-1.1s-2.2.4-2.8,1.1c-.7.7-1,1.7-1,3v11h-6.2v-11c0-1.3-.3-2.3-1-3-.7-.7-1.6-1.1-2.8-1.1s-2.2.4-2.8,1.1c-.7.7-1,1.7-1,3v11H0V6.6h6.2v2.5c.6-.8,1.4-1.5,2.5-2,1-.5,2.2-.7,3.4-.7s2.9.3,4.1,1,2.1,1.6,2.8,2.8c.7-1.1,1.7-2,2.9-2.7,1.2-.7,2.5-1.1,4-1.1,2.5,0,4.5.8,6,2.3Z"/>
  <path d="M38.3,11.2c.8-1.6,1.9-2.8,3.2-3.6,1.4-.8,2.9-1.3,4.5-1.3s2.7.3,3.8.9c1.1.6,1.9,1.3,2.5,2.3v-2.9h6.2v20.2h-6.2v-2.9c-.6.9-1.4,1.7-2.5,2.3s-2.3.9-3.8.9-3.1-.4-4.5-1.3c-1.4-.9-2.4-2.1-3.2-3.7-.8-1.6-1.2-3.4-1.2-5.5s.4-3.9,1.2-5.5ZM51,13c-.9-.9-1.9-1.3-3.1-1.3s-2.3.4-3.1,1.3c-.9.9-1.3,2.1-1.3,3.6s.4,2.8,1.3,3.7c.9.9,1.9,1.4,3.1,1.4s2.3-.4,3.1-1.3c.9-.9,1.3-2.1,1.3-3.7s-.4-2.8-1.3-3.7Z"/>
  <path d="M62.9,11.2c.8-1.6,1.9-2.8,3.2-3.6,1.4-.8,2.9-1.3,4.5-1.3s2.5.3,3.6.8c1.1.6,2,1.3,2.6,2.2V0h6.2v26.8h-6.2v-2.9c-.6,1-1.4,1.7-2.5,2.3-1.1.6-2.3.9-3.8.9s-3.2-.4-4.5-1.3c-1.4-.9-2.4-2.1-3.2-3.7-.8-1.6-1.2-3.4-1.2-5.5s.4-3.9,1.2-5.5ZM75.6,13c-.9-.9-1.9-1.3-3.1-1.3s-2.3.4-3.1,1.3c-.9.9-1.3,2.1-1.3,3.6s.4,2.8,1.3,3.7c.9.9,1.9,1.4,3.1,1.4s2.3-.4,3.1-1.3c.9-.9,1.3-2.1,1.3-3.7s-.4-2.8-1.3-3.7Z"/>
  <path d="M106.5,18.2h-14c0,1.3.5,2.2,1.2,2.9.7.7,1.6,1,2.6,1,1.5,0,2.6-.7,3.2-2h6.6c-.3,1.3-.9,2.5-1.8,3.6-.9,1.1-2,1.9-3.3,2.5-1.3.6-2.8.9-4.5.9s-3.7-.4-5.3-1.3c-1.5-.8-2.8-2.1-3.6-3.6s-1.3-3.4-1.3-5.5.4-3.9,1.3-5.5c.9-1.6,2.1-2.8,3.6-3.6,1.5-.8,3.3-1.3,5.3-1.3s3.7.4,5.2,1.2c1.5.8,2.7,2,3.6,3.5.9,1.5,1.3,3.3,1.3,5.3s0,1.2-.1,1.8ZM100.3,14.8c0-1.1-.4-1.9-1.1-2.5-.7-.6-1.6-.9-2.7-.9s-1.9.3-2.6.9c-.7.6-1.2,1.5-1.3,2.6h7.8Z"/>
  <path class="st0" d="M118.8,7.3c1.1-.6,2.3-1,3.6-1v6.6h-1.7c-1.5,0-2.7.3-3.5,1-.8.7-1.2,1.8-1.2,3.5v9.4h-6.2V6.6h6.2v3.4c.7-1.1,1.6-2,2.7-2.6Z"/>
  <path class="st0" d="M144.4,18.2h-14c0,1.3.5,2.2,1.2,2.9.7.7,1.6,1,2.6,1,1.5,0,2.6-.7,3.2-2h6.6c-.3,1.3-.9,2.5-1.8,3.6-.9,1.1-2,1.9-3.3,2.5-1.3.6-2.8.9-4.5.9s-3.7-.4-5.3-1.3-2.8-2.1-3.6-3.6-1.3-3.4-1.3-5.5.4-3.9,1.3-5.5c.9-1.6,2.1-2.8,3.6-3.6s3.3-1.3,5.3-1.3,3.7.4,5.2,1.2c1.5.8,2.7,2,3.6,3.5.9,1.5,1.3,3.3,1.3,5.3s0,1.2-.1,1.8ZM138.2,14.8c0-1.1-.4-1.9-1.1-2.5-.7-.6-1.6-.9-2.7-.9s-1.9.3-2.6.9c-.7.6-1.2,1.5-1.3,2.6h7.8Z"/>
  <path class="st0" d="M147.7,11.2c.8-1.6,1.9-2.8,3.2-3.6,1.4-.8,2.9-1.3,4.5-1.3s2.7.3,3.8.9c1.1.6,1.9,1.3,2.5,2.3v-2.9h6.2v20.2h-6.2v-2.9c-.6.9-1.4,1.7-2.5,2.3s-2.3.9-3.8.9-3.1-.4-4.5-1.3c-1.4-.9-2.4-2.1-3.2-3.7-.8-1.6-1.2-3.4-1.2-5.5s.4-3.9,1.2-5.5ZM160.4,13c-.9-.9-1.9-1.3-3.1-1.3s-2.3.4-3.1,1.3c-.9.9-1.3,2.1-1.3,3.6s.4,2.8,1.3,3.7c.9.9,1.9,1.4,3.1,1.4s2.3-.4,3.1-1.3c.9-.9,1.3-2.1,1.3-3.7s-.4-2.8-1.3-3.7Z"/>
  <rect class="st0" x="172.4" width="6.2" height="26.8"/>
  <path d="M31.8,38.5c.6.3,1,.7,1.3,1.3s.5,1.2.5,1.9-.2,1.4-.5,1.9c-.3.5-.8,1-1.3,1.2-.6.3-1.3.4-2.1.4h-2.3v-7.2h2.3c.8,0,1.5.1,2.1.4ZM31.9,43.7c.5-.5.7-1.2.7-2.1s-.2-1.6-.7-2.1c-.5-.5-1.2-.8-2.1-.8h-1.3v5.7h1.3c.9,0,1.7-.2,2.1-.7Z"/>
  <polygon points="39.4 38.8 39.4 41.2 42.1 41.2 42.1 42 39.4 42 39.4 44.5 42.4 44.5 42.4 45.3 38.5 45.3 38.5 38 42.4 38 42.4 38.8 39.4 38.8"/>
  <path d="M48.5,45.1c-.4-.2-.7-.4-.9-.7-.2-.3-.3-.7-.3-1h1c0,.3.2.6.4.9.2.2.6.3,1.1.3s.8-.1,1.1-.3c.3-.2.4-.5.4-.9s0-.5-.2-.7c-.2-.2-.3-.3-.6-.4-.2,0-.5-.2-.9-.3-.5-.1-.9-.2-1.1-.4-.3-.1-.5-.3-.7-.6-.2-.3-.3-.6-.3-1.1s.1-.7.3-1.1c.2-.3.5-.5.8-.7.4-.2.8-.2,1.3-.2.7,0,1.2.2,1.7.5.4.3.7.8.7,1.4h-1c0-.3-.2-.5-.4-.7-.3-.2-.6-.3-1-.3s-.7.1-1,.3c-.2.2-.4.5-.4.9s0,.5.2.6.3.3.6.4c.2,0,.5.2.9.3.5.1.9.3,1.2.4.3.1.5.3.7.6.2.3.3.6.3,1.1s0,.7-.3,1c-.2.3-.5.6-.8.8-.4.2-.8.3-1.3.3s-.9,0-1.3-.3Z"/>
  <rect x="57.2" y="38" width=".9" height="7.2"/>
  <path d="M68.9,40.1c-.2-.4-.5-.8-.9-1-.4-.2-.8-.3-1.3-.3s-1,.1-1.4.3-.7.6-1,1c-.2.4-.3.9-.3,1.5s.1,1.1.3,1.5.6.8,1,1,.9.3,1.4.3,1.3-.2,1.7-.6.7-1,.8-1.7h-2.9v-.8h3.9v.7c0,.6-.2,1.1-.6,1.6-.3.5-.7.9-1.3,1.2-.5.3-1.1.4-1.7.4s-1.3-.2-1.8-.5c-.6-.3-1-.8-1.3-1.3s-.5-1.2-.5-1.9.2-1.3.5-1.9.8-1,1.3-1.3c.6-.3,1.2-.5,1.8-.5s1.5.2,2,.6c.6.4,1,.9,1.3,1.6h-1.1Z"/>
  <polygon points="80.8 45.3 79.9 45.3 76.1 39.5 76.1 45.3 75.1 45.3 75.1 38 76.1 38 79.9 43.8 79.9 38 80.8 38 80.8 45.3"/>
  <path d="M98.1,45.3l-.9-1c-.4.4-.7.6-1.1.8-.4.2-.9.3-1.4.3s-.9,0-1.3-.3c-.4-.2-.7-.4-.9-.8-.2-.3-.3-.7-.3-1.2s.1-1,.4-1.3.7-.7,1.3-.9c-.2-.3-.4-.5-.5-.7,0-.2-.1-.5-.1-.7s0-.6.2-.8c.2-.2.4-.4.7-.6.3-.1.6-.2,1-.2s.7,0,1,.2c.3.1.5.3.6.6.1.3.2.5.2.9h-.9c0-.3,0-.5-.2-.7-.2-.2-.4-.2-.6-.2s-.5,0-.7.2-.3.4-.3.6,0,.4.2.6c.1.2.3.4.6.7l2.2,2.2.2-.3.7-1.2h1l-.9,1.5c-.1.2-.3.4-.4.7l1.6,1.6h-1.2ZM95.7,44.4c.3-.1.6-.4.9-.7l-2.1-2.1c-.9.3-1.3.9-1.3,1.6s.1.7.4,1,.7.4,1.1.4.7,0,1-.2Z"/>
  <path d="M114.5,41.6c-.4.4-1,.6-1.9.6h-1.4v3h-.9v-7.2h2.3c.8,0,1.4.2,1.9.6.4.4.6.9.6,1.5s-.2,1.1-.6,1.5ZM113.8,41.1c.2-.2.4-.6.4-1,0-.9-.5-1.3-1.5-1.3h-1.4v2.7h1.4c.5,0,.9-.1,1.2-.3Z"/>
  <path d="M123.7,45.3l-1.7-3h-1.1v3h-.9v-7.2h2.3c.5,0,1,0,1.4.3.4.2.7.4.8.8.2.3.3.7.3,1.1s-.1.9-.4,1.3c-.3.4-.7.6-1.3.8l1.8,3h-1.1ZM120.9,41.5h1.4c.5,0,.9-.1,1.2-.4.3-.3.4-.6.4-1s-.1-.8-.4-1c-.3-.2-.6-.4-1.2-.4h-1.4v2.7Z"/>
  <rect x="129.9" y="38" width=".9" height="7.2"/>
  <polygon points="141.8 45.3 140.8 45.3 137 39.5 137 45.3 136.1 45.3 136.1 38 137 38 140.8 43.8 140.8 38 141.8 38 141.8 45.3"/>
  <polygon points="151.5 38 151.5 38.8 149.5 38.8 149.5 45.3 148.6 45.3 148.6 38.8 146.6 38.8 146.6 38 151.5 38"/>
</svg>
