<svg xmlns="http://www.w3.org/2000/svg" width="1200" height="630" viewBox="0 0 1200 630" role="img" aria-labelledby="title desc">
  <title id="title">MadeReal £197 website preview social image</title>
  <desc id="desc">Social preview image for MadeReal's £197 local business website offer.</desc>
  <rect width="1200" height="630" fill="#f5f5f7"/>
  <rect x="72" y="72" width="1056" height="486" rx="48" fill="#ffffff" stroke="#e5e7eb" stroke-width="2"/>
  <rect x="112" y="112" width="72" height="72" rx="18" fill="#14b8a6"/>
  <path fill="#ffffff" d="M130 166v-36h11l14 21 14-21h11v36h-11v-20l-11 17h-7l-11-17v20h-10z"/>
  <text x="204" y="143" font-family="Inter, Arial, sans-serif" font-size="34" font-weight="900" fill="#0f172a">made<tspan fill="#14b8a6">real</tspan></text>
  <text x="206" y="170" font-family="Inter, Arial, sans-serif" font-size="14" font-weight="700" letter-spacing="2" fill="#64748b">DESIGN LTD</text>
  <text x="112" y="270" font-family="Inter, Arial, sans-serif" font-size="78" font-weight="900" fill="#020617">Proper business</text>
  <text x="112" y="352" font-family="Inter, Arial, sans-serif" font-size="78" font-weight="900" fill="#020617">websites for £197.</text>
  <text x="112" y="412" font-family="Inter, Arial, sans-serif" font-size="31" font-weight="600" fill="#475569">Free preview first. No MadeReal monthly fee.</text>
  <rect x="112" y="462" width="268" height="64" rx="32" fill="#2563eb"/>
  <text x="156" y="504" font-family="Inter, Arial, sans-serif" font-size="24" font-weight="800" fill="#ffffff">Get free preview</text>
  <rect x="780" y="132" width="260" height="360" rx="28" fill="#0f172a"/>
  <rect x="804" y="164" width="212" height="284" rx="14" fill="#ffffff"/>
  <rect x="824" y="188" width="172" height="104" rx="12" fill="#dbeafe"/>
  <rect x="824" y="314" width="172" height="18" rx="9" fill="#0f172a"/>
  <rect x="824" y="348" width="132" height="14" rx="7" fill="#64748b"/>
  <rect x="824" y="382" width="146" height="42" rx="21" fill="#14b8a6"/>
  <circle cx="910" cy="468" r="8" fill="#334155"/>
</svg>
